<?xml version="1.0" standalone="no"?>
<!DOCTYPE svg PUBLIC "-//W3C//DTD SVG 20010904//EN"
 "http://www.w3.org/TR/2001/REC-SVG-20010904/DTD/svg10.dtd">
<svg version="1.0" xmlns="http://www.w3.org/2000/svg"
 width="700.000000pt" height="700.000000pt" viewBox="0 0 700.000000 700.000000"
 preserveAspectRatio="xMidYMid meet">
<metadata>
Created by potrace 1.14, written by Peter Selinger 2001-2017
</metadata>
<g transform="translate(0.000000,700.000000) scale(0.100000,-0.100000)"
fill="#000000" stroke="none">
<path d="M3378 6415 c-2 -1 -46 -5 -98 -8 -480 -28 -1004 -211 -1420 -496
-297 -204 -582 -488 -767 -766 -111 -166 -124 -189 -202 -346 -141 -283 -246
-615 -277 -882 -4 -28 -8 -54 -9 -57 -8 -13 -19 -227 -19 -360 0 -225 11 -345
50 -545 90 -473 289 -902 593 -1285 70 -87 278 -304 361 -375 464 -400 1068
-654 1668 -702 154 -12 564 -4 591 11 3 2 33 6 66 10 50 5 133 21 324 62 63
13 336 111 439 156 774 344 1367 1012 1610 1813 50 165 77 289 106 488 26 172
26 537 1 727 -88 659 -373 1240 -834 1701 -490 488 -1103 776 -1801 844 -65 7
-377 15 -382 10z m297 -590 c50 -3 101 -7 115 -9 53 -9 126 -20 140 -22 29 -3
225 -53 275 -69 444 -146 826 -408 1110 -760 213 -265 382 -604 451 -905 29
-128 40 -190 49 -270 3 -30 8 -73 10 -95 6 -46 6 -355 0 -400 -2 -16 -7 -57
-11 -90 -3 -33 -8 -69 -10 -80 -2 -11 -8 -45 -14 -75 -32 -173 -104 -386 -196
-575 -245 -505 -667 -903 -1194 -1128 -207 -88 -419 -140 -695 -172 -68 -8
-336 -8 -410 0 -567 59 -1038 279 -1440 671 -51 50 -115 122 -204 230 -40 47
-173 256 -220 344 -136 258 -226 569 -256 885 -7 70 -7 346 0 403 19 155 33
245 47 297 5 22 12 49 14 59 23 121 120 373 201 526 348 653 988 1109 1709
1216 187 28 320 33 529 19z"/>
<path d="M3415 5236 c-77 -24 -138 -75 -178 -151 -22 -40 -22 -43 -24 -780 -2
-622 0 -749 12 -795 28 -107 66 -173 143 -254 54 -57 856 -596 915 -615 138
-46 294 23 358 157 44 93 25 226 -43 307 -15 17 -202 148 -417 290 l-390 260
-1 677 c0 658 -1 679 -20 732 -53 140 -212 217 -355 172z"/>
</g>
</svg>
